<svg width="12" height="16" viewBox="0 0 12 16" fill="none" xmlns="http://www.w3.org/2000/svg">
<path d="M10.099 4.7146C10.6673 5.18454 12.2263 6.47357 11.9722 7.37847C11.8548 7.78489 11.388 7.91506 11.0419 8.04203C10.2449 8.33097 9.42578 8.55957 8.59389 8.72783C7.92077 8.86437 6.48247 9.16279 6.74917 7.97214C6.85391 7.51175 7.22541 7.12119 7.52391 6.77511C8.13669 6.0544 8.76222 5.29233 9.50198 4.70179C9.56232 4.65413 9.63533 4.64145 9.69886 4.65101C9.82271 4.6003 9.97193 4.60667 10.099 4.7146Z" fill="#421908"/>
<path d="M9.26072 14.2145C8.76223 13.8113 8.40977 13.1794 8.10497 12.627C7.80648 12.0936 7.3366 11.3887 7.25722 10.7696C7.09533 9.49635 8.93998 10.2616 9.47026 10.4457C10.1751 10.6934 12.0643 10.9664 11.8548 12.0682C11.6801 12.9667 10.5974 14.0621 9.69256 14.2018C9.68307 14.205 9.67032 14.2018 9.65765 14.2018C9.65446 14.205 9.65127 14.2082 9.64816 14.2113C9.62273 14.224 9.59419 14.2399 9.56558 14.2526C9.45759 14.3098 9.35285 14.2876 9.26072 14.2145Z" fill="#421908"/>
<path d="M5.13631 10.9378C6.13966 10.5219 6.23172 11.6426 6.22535 12.3221C6.21586 13.1318 6.19043 13.9445 6.1301 14.751C6.10786 15.078 6.1206 15.4718 5.80943 15.6781C5.42525 15.9322 4.68549 15.7321 4.28856 15.6083C4.27588 15.6019 4.26313 15.5956 4.25046 15.5925C3.41545 15.4464 2.39624 15.0622 2.29781 14.2907C2.28825 14.2018 2.32323 14.1224 2.37719 14.0621C2.40262 14.0144 2.42797 13.97 2.45658 13.9287C2.58044 13.7573 2.72328 13.6049 2.86619 13.4493C3.10746 13.0905 3.36786 12.7445 3.64405 12.4111C4.0441 11.9284 4.53621 11.1854 5.13631 10.9378Z" fill="#421908"/>
<path d="M5.28242 7.45794C3.8187 6.2546 2.39307 4.39083 1.65643 2.66678C1.09442 1.35545 2.52324 0.555354 3.62494 0.193405C5.11091 -0.295589 5.70145 0.129883 5.85067 1.61585C5.97452 2.89538 6.03167 4.18447 6.02212 5.47037C6.01893 6.01333 6.17133 6.88962 5.85385 7.37862C5.90463 7.57868 5.60302 7.72152 5.43157 7.58498C5.40615 7.56593 5.38079 7.54051 5.35218 7.51827C5.32683 7.50241 5.30459 7.48336 5.28242 7.45794Z" fill="#421908"/>
<path d="M5.12364 9.32177C5.24112 9.8425 4.8728 10.052 4.44103 10.2489C3.67266 10.595 2.86619 10.8713 2.05653 11.0999C1.58659 11.23 0.865876 11.5412 0.411864 11.1951C0.0689657 10.9348 0.0467291 10.3918 0.0150023 9.99808C-0.0548243 9.1186 0.0785251 7.01985 1.29772 6.93098C1.89464 6.88969 2.64077 7.42309 3.12977 7.70253C3.78065 8.07723 4.47919 8.50581 4.96493 9.09324C5.03788 9.13446 5.09821 9.20747 5.12364 9.32177Z" fill="#421908"/>
</svg>
