<svg width="400" height="400" viewBox="0 0 400 400" fill="none" xmlns="http://www.w3.org/2000/svg">
<g id="pattern 1">
<path id="Vector" d="M248.741 168.262L236.586 167.267C230.352 166.753 225.561 161.531 225.586 155.281L225.62 143.083C225.662 132.21 212.368 126.905 204.912 134.825L196.552 143.708C192.259 148.254 185.199 148.752 180.323 144.838L170.808 137.196C162.331 130.388 149.897 137.482 151.441 148.237L153.17 160.317C154.056 166.508 150.032 172.337 143.933 173.712L132.031 176.386C121.42 178.773 119.21 192.91 128.59 198.41L139.108 204.593C144.499 207.756 146.548 214.538 143.824 220.164L138.493 231.139C133.744 240.915 143.419 251.459 153.566 247.562L164.954 243.193C170.791 240.949 177.371 243.572 180.07 249.215L185.325 260.223C190.007 270.033 204.287 269.038 207.569 258.671L211.246 247.048C213.136 241.084 219.294 237.575 225.384 238.983L237.269 241.742C247.855 244.196 255.978 232.412 249.922 223.387L243.123 213.256C239.639 208.06 240.736 201.067 245.637 197.178L255.202 189.604C263.722 182.855 259.58 169.157 248.741 168.262V168.262ZM232.014 193.88L225.924 198.418C222.803 200.747 221.985 205.082 224.06 208.38L228.1 214.808C231.702 220.544 226.421 227.722 219.876 225.993L212.529 224.062C208.767 223.066 204.869 225.133 203.587 228.811L201.074 235.98C198.838 242.366 189.931 242.72 187.206 236.529L184.136 229.578C182.567 226.01 178.518 224.256 174.848 225.538L167.67 228.051C161.285 230.287 155.456 223.539 158.594 217.541L162.12 210.818C163.925 207.368 162.778 203.108 159.48 201.033L153.052 196.993C147.316 193.391 148.952 184.627 155.599 183.345L163.065 181.902C166.886 181.168 169.501 177.609 169.062 173.745L168.21 166.196C167.451 159.465 175.321 155.289 180.475 159.684L186.253 164.619C189.214 167.141 193.617 166.972 196.375 164.214L201.748 158.849C206.531 154.058 214.705 157.609 214.477 164.374L214.224 171.966C214.098 175.854 216.982 179.195 220.846 179.633L228.395 180.485C235.127 181.236 237.446 189.84 232.014 193.88V193.88Z" stroke="#44012E" stroke-width="7.58458" stroke-miterlimit="10"/>
<path id="Vector_2" d="M272.345 155.432L255.203 153.94C246.412 153.169 239.689 145.768 239.77 136.95L239.905 119.741C240.043 104.401 221.325 96.8197 210.748 107.941L198.89 120.413C192.8 126.796 182.835 127.448 175.985 121.891L162.616 111.04C150.704 101.375 133.111 111.294 135.212 126.479L137.564 143.534C138.769 152.275 133.051 160.47 124.437 162.366L107.625 166.053C92.6366 169.345 89.4169 189.275 102.611 197.102L117.407 205.901C124.989 210.402 127.832 219.985 123.948 227.904L116.348 243.348C109.577 257.107 123.152 272.053 137.496 266.628L153.594 260.545C161.846 257.421 171.11 261.17 174.877 269.151L182.212 284.72C188.747 298.594 208.902 297.292 213.606 282.69L218.879 266.317C221.587 257.916 230.3 253.01 238.883 255.041L255.631 259.018C270.549 262.557 282.095 245.99 273.615 233.213L264.095 218.871C259.218 211.515 260.815 201.657 267.757 196.206L281.308 185.587C293.376 176.128 287.631 156.771 272.345 155.432V155.432Z" stroke="#44012E" stroke-width="10.7009" stroke-miterlimit="10"/>
<path id="Vector_3" d="M214.751 196.023L211.308 198.589C209.543 199.905 209.081 202.357 210.254 204.222L212.538 207.856C214.575 211.099 211.589 215.158 207.888 214.18L203.734 213.088C201.607 212.525 199.403 213.694 198.678 215.773L197.257 219.827C195.993 223.438 190.957 223.638 189.416 220.137L187.68 216.207C186.793 214.19 184.504 213.198 182.429 213.923L178.37 215.344C174.76 216.608 171.464 212.792 173.238 209.401L175.232 205.6C176.252 203.649 175.604 201.241 173.739 200.067L170.105 197.783C166.861 195.746 167.787 190.791 171.545 190.066L175.766 189.25C177.926 188.835 179.405 186.823 179.157 184.638L178.675 180.37C178.246 176.563 182.696 174.203 185.61 176.687L188.877 179.478C190.551 180.904 193.041 180.808 194.6 179.249L197.639 176.215C200.343 173.506 204.964 175.514 204.836 179.339L204.693 183.632C204.621 185.831 206.252 187.719 208.437 187.967L212.705 188.449C216.511 188.873 217.823 193.738 214.751 196.023V196.023Z" stroke="#44012E" stroke-width="4.28849" stroke-miterlimit="10"/>
</g>
</svg>
