<svg width="229" height="89" viewBox="0 0 229 89" fill="none">
<g id="rk-logo" clip-path="url(#clip0_2_2)">
<path id="a-2" d="M225.24 76.881V74.0514H225.175C223.892 76.2229 221.589 77.3408 218.989 77.3408C213.659 77.3408 209.316 73.3276 209.316 68.0624C209.316 62.2383 213.494 58.1595 218.857 58.1595C221.522 58.1595 223.76 59.146 225.175 61.2183H225.24V58.6528H228.662V76.881H225.24V76.881ZM225.306 67.7997C225.306 64.2463 222.74 61.2854 218.956 61.2854C215.534 61.2854 212.737 64.2128 212.737 67.7997C212.737 71.2218 215.534 74.2149 218.956 74.2149C222.51 74.2149 225.306 71.254 225.306 67.7997Z" fill="#D0912C"/>
<path id="n" d="M201.973 76.881V66.9446C201.973 63.0949 200.46 61.2854 197.433 61.2854C194.439 61.2854 192.629 63.489 192.629 66.911V76.881H189.207V58.6528H192.399V60.5937H192.464C193.813 58.8498 195.689 58.1595 197.795 58.1595C202.17 58.1595 205.395 60.9234 205.395 65.9566V76.881H201.973V76.881Z" fill="#D0912C"/>
<path id="i" d="M180.914 56.547V52.5331H184.336V56.547H180.914ZM180.914 76.881V58.6528H184.336V76.881H180.914Z" fill="#D0912C"/>
<path id="g" d="M172.552 74.479C171.137 76.3878 168.867 77.3408 166.267 77.3408C161.035 77.3408 156.529 72.8329 156.529 67.8976C156.529 62.4032 160.806 58.1595 166.301 58.1595C168.669 58.1595 171.17 59.146 172.618 60.7586V58.6528H176.04V74.479C176.04 80.4009 172.387 84.0536 166.201 84.0536C162.023 84.0536 158.733 81.8486 157.186 78.2951H161.003C162.286 80.1047 163.998 80.9277 166.235 80.9277C170.413 80.9277 172.618 78.657 172.618 74.479H172.552V74.479ZM172.618 67.7662C172.618 63.489 169.361 61.2854 166.201 61.2854C162.813 61.2854 159.95 64.2128 159.95 67.7662C159.95 71.254 162.846 74.2149 166.235 74.2149C170.216 74.2149 172.618 70.7272 172.618 67.7662V67.7662Z" fill="#D0912C"/>
<path id="r-2" d="M146.721 76.881V58.6528H149.913V60.2974H149.978C150.801 59.0804 152.215 58.2909 154.617 58.1595V61.6794C151.656 61.7786 150.143 63.5882 150.143 66.6483V76.881H146.721V76.881Z" fill="#D0912C"/>
<path id="u" d="M138.688 76.881V74.9066H138.622C137.733 76.4534 135.661 77.3408 133.259 77.3408C129.344 77.3408 125.658 75.235 125.658 68.8198V58.6528H129.08V68.5557C129.08 72.3732 130.495 74.2149 133.621 74.2149C136.779 74.2149 138.392 72.0113 138.392 68.49V58.6528H141.814V76.881H138.688V76.881Z" fill="#D0912C"/>
<path id="h-2" d="M118.12 76.881V66.9767C118.12 63.0614 116.606 61.2854 113.579 61.2854C110.585 61.2854 108.775 63.4568 108.775 67.0102V76.881H105.354V52.5331H108.775V60.5937H108.841C109.926 58.9811 111.67 58.1595 113.941 58.1595C118.284 58.1595 121.541 60.9234 121.541 65.9245V76.881H118.12V76.881Z" fill="#D0912C"/>
<path id="k" d="M85.3109 76.881V52.5331H88.8643V76.881H85.3109ZM98.1762 76.881L88.93 64.6082L98.1762 52.5331H102.552L93.0431 64.6082L102.552 76.881H98.1762Z" fill="#D0912C"/>
<path id="l" d="M191.643 45.4018V21.0539H197.105V45.4018H191.643Z" fill="#DDBB40"/>
<path id="e" d="M174.298 37.9331C174.594 40.006 176.338 41.388 178.575 41.388C180.056 41.388 181.01 40.8283 181.899 39.6769H187.493C185.749 43.6579 182.424 45.9943 178.575 45.9943C173.311 45.9943 168.902 41.7499 168.902 36.3205C168.902 31.0561 173.114 26.5154 178.477 26.5154C183.939 26.5154 188.117 30.8255 188.117 36.4854C188.117 37.0115 188.084 37.4391 187.986 37.9331H174.298V37.9331ZM182.655 34.2476C182.227 32.3724 180.583 31.1217 178.477 31.1217C176.503 31.1217 174.792 32.3067 174.363 34.2476H182.655Z" fill="#DDBB40"/>
<path id="h" d="M160.047 45.4018V35.3661C160.047 32.9977 159.127 31.6485 157.119 31.6485C155.046 31.6485 154.058 32.8656 154.058 35.1363V45.4018H148.598V21.0539H154.058V28.8846C154.848 27.4041 156.625 26.5154 158.797 26.5154C162.976 26.5154 165.51 29.148 165.51 33.9185V45.4018H160.047V45.4018Z" fill="#DDBB40"/>
<path id="c" d="M145.007 44.3489C143.46 45.369 141.453 45.9943 139.347 45.9943C133.458 45.9943 129.574 41.585 129.574 36.4519C129.574 30.2994 133.72 26.5154 139.413 26.5154C141.485 26.5154 143.131 26.8445 145.007 28.0623V33.2275C143.855 32.2075 142.078 31.6157 140.334 31.6157C137.043 31.6157 135.07 33.6223 135.07 36.2549C135.07 38.8867 137.176 40.894 140.103 40.894C141.913 40.894 143.295 40.3679 145.007 38.9203V44.3489V44.3489Z" fill="#DDBB40"/>
<path id="a" d="M120.522 45.4018V43.4274H120.457C119.666 45.0399 117.494 46.0271 115.092 46.0271C109.697 46.0271 105.946 41.7827 105.946 36.2549C105.946 30.859 109.861 26.5154 115.092 26.5154C117.331 26.5154 119.403 27.4041 120.457 29.0823H120.522V27.1407H125.983V45.4018H120.522V45.4018ZM120.522 36.2549C120.522 33.6886 118.449 31.6157 115.882 31.6157C113.382 31.6157 111.408 33.6886 111.408 36.3205C111.408 38.8539 113.414 40.9269 115.949 40.9269C118.514 40.9269 120.522 38.8867 120.522 36.2549V36.2549Z" fill="#DDBB40"/>
<path id="r-1" d="M96.695 45.4018L91.0686 37.5383H91.0029V45.4018H85.0475V21.0539H93.0102C95.5436 21.0539 97.4852 21.383 98.7679 21.9419C101.401 23.1269 103.243 25.9893 103.243 29.4442C103.243 33.2939 100.94 36.4519 97.189 37.11L103.803 45.4018H96.695V45.4018ZM93.3064 33.2939C95.7741 33.2939 97.2875 32.1418 97.2875 29.8061C97.2875 27.7004 95.7085 26.5154 93.3721 26.5154H91.0029V33.2939H93.3064Z" fill="#DDBB40"/>
<path id="cap-k" d="M54.1308 43.3997L77.5104 17.8646C80.2366 14.8871 78.1243 10.0893 74.0874 10.0893H67.4265C66.0708 10.0893 64.7817 10.6771 63.8925 11.7005L39.8007 39.4314C37.6144 41.948 36.4104 45.1695 36.4104 48.5032V49.4903C36.4104 52.0874 37.3288 54.6007 39.0032 56.586L64.7148 87.0714C65.6043 88.1261 66.9137 88.7346 68.2934 88.7346H75.7802C80.0078 88.7346 82.3247 83.811 79.6298 80.5536L53.9765 49.5451C52.4874 47.7451 52.5532 45.1228 54.1308 43.3997V43.3997Z" fill="#DDBB40"/>
<path id="cap-r" d="M21.1751 50.4544C19.4362 48.1053 20.3589 44.7976 23.019 43.5868C24.1447 43.0744 25.1191 42.5077 25.9508 41.9206C32.0569 37.8107 35.11 31.1175 35.11 23.4849C35.11 17.6137 33.3486 10.9205 27.36 5.87123C23.7198 2.81818 18.2008 0 7.39778 0L4.57595 0.00224172C2.04814 0.00424988 1.0297e-05 2.05401 1.0297e-05 4.58182V7.86743C1.02972e-05 10.3967 2.05036 12.447 4.57959 12.447H4.5796C7.39778 12.447 19.3751 12.5644 19.3751 24.1895C19.3751 31.8613 12.0685 34.4271 6.3277 35.2852C2.70548 35.8266 -8.90608e-06 38.8917 0 42.5542L5.89772e-06 44.9795C8.75762e-06 46.1556 0.370705 47.3017 1.05941 48.255L21.4094 76.4244C22.2704 77.6162 23.6513 78.3222 25.1216 78.3222H32.7156C36.4761 78.3222 38.6338 74.0405 36.3965 71.018L21.1751 50.4544V50.4544Z" fill="#DDBB40"/>
</g>
<defs>
<clipPath id="clip0_2_2">
<rect width="228.662" height="88.7346" fill="white"/>
</clipPath>
</defs>
</svg>
