<svg width="400" height="172" viewBox="0 0 400 172" fill="none" xmlns="http://www.w3.org/2000/svg">
<g id="rk-logo">
<path id="a-2" d="M380.514 141.047V136.465H380.407C378.33 139.982 374.6 141.792 370.388 141.792C361.756 141.792 354.721 135.293 354.721 126.767C354.721 117.335 361.488 110.73 370.175 110.73C374.491 110.73 378.117 112.327 380.407 115.683H380.514V111.529H386.057V141.047H380.514V141.047ZM380.62 126.341C380.62 120.587 376.465 115.792 370.336 115.792C364.793 115.792 360.262 120.532 360.262 126.341C360.262 131.883 364.793 136.73 370.336 136.73C376.091 136.73 380.62 131.935 380.62 126.341Z" fill="#D0912C"/>
<path id="n" d="M342.828 141.047V124.956C342.828 118.722 340.376 115.792 335.474 115.792C330.624 115.792 327.693 119.36 327.693 124.902V141.047H322.15V111.529H327.319V114.672H327.426C329.61 111.848 332.649 110.73 336.06 110.73C343.147 110.73 348.37 115.206 348.37 123.357V141.047H342.828V141.047Z" fill="#D0912C"/>
<path id="i" d="M308.717 108.119V101.619H314.26V108.119H308.717ZM308.717 141.047V111.529H314.26V141.047H308.717Z" fill="#D0912C"/>
<path id="g" d="M295.174 137.158C292.881 140.249 289.205 141.792 284.993 141.792C276.52 141.792 269.22 134.492 269.22 126.5C269.22 117.602 276.148 110.73 285.048 110.73C288.884 110.73 292.935 112.327 295.28 114.939V111.529H300.823V137.158C300.823 146.747 294.907 152.663 284.887 152.663C278.12 152.663 272.79 149.092 270.284 143.337H276.467C278.545 146.268 281.318 147.601 284.941 147.601C291.709 147.601 295.28 143.923 295.28 137.158H295.174V137.158ZM295.28 126.287C295.28 119.36 290.004 115.792 284.887 115.792C279.398 115.792 274.761 120.533 274.761 126.287C274.761 131.935 279.453 136.73 284.941 136.73C291.389 136.73 295.28 131.082 295.28 126.287V126.287Z" fill="#D0912C"/>
<path id="r-2" d="M253.334 141.047V111.529H258.504V114.192H258.61C259.943 112.221 262.234 110.943 266.124 110.73V116.43C261.328 116.591 258.877 119.521 258.877 124.477V141.047H253.334V141.047Z" fill="#D0912C"/>
<path id="u" d="M240.323 141.047V137.85H240.216C238.777 140.355 235.42 141.792 231.53 141.792C225.188 141.792 219.217 138.382 219.217 127.993V111.529H224.76V127.565C224.76 133.747 227.053 136.73 232.116 136.73C237.231 136.73 239.843 133.161 239.843 127.459V111.529H245.386V141.047H240.323V141.047Z" fill="#D0912C"/>
<path id="h-2" d="M207.009 141.047V125.008C207.009 118.668 204.556 115.792 199.653 115.792C194.803 115.792 191.872 119.308 191.872 125.063V141.047H186.33V101.619H191.872V114.672H191.978C193.737 112.06 196.562 110.73 200.239 110.73C207.274 110.73 212.549 115.206 212.549 123.304V141.047H207.009V141.047Z" fill="#D0912C"/>
<path id="k" d="M153.867 141.047V101.619H159.622V141.047H153.867ZM174.705 141.047L159.729 121.173L174.705 101.619H181.792L166.391 121.173L181.792 141.047H174.705Z" fill="#D0912C"/>
<path id="l" d="M326.095 90.0702V50.6414H334.942V90.0702H326.095Z" fill="#DDBB40"/>
<path id="e" d="M298.001 77.9753C298.48 81.3323 301.305 83.5702 304.929 83.5702C307.328 83.5702 308.873 82.6639 310.313 80.7994H319.373C316.548 87.2462 311.164 91.0296 304.929 91.0296C296.403 91.0296 289.262 84.1563 289.262 75.364C289.262 66.8388 296.084 59.4857 304.77 59.4857C313.617 59.4857 320.385 66.4654 320.385 75.631C320.385 76.483 320.33 77.1754 320.172 77.9753H298.001V77.9753ZM311.537 72.0071C310.845 68.9704 308.181 66.9451 304.77 66.9451C301.572 66.9451 298.802 68.864 298.107 72.0071H311.537Z" fill="#DDBB40"/>
<path id="h" d="M274.919 90.0702V73.8185C274.919 69.983 273.428 67.7982 270.175 67.7982C266.819 67.7982 265.219 69.7691 265.219 73.4463V90.0702H256.374V50.6414H265.219V63.3223C266.498 60.9249 269.377 59.4857 272.894 59.4857C279.663 59.4857 283.767 63.7489 283.767 71.4742V90.0702H274.919V90.0702Z" fill="#DDBB40"/>
<path id="c" d="M250.557 88.3652C248.052 90.017 244.802 91.0296 241.391 91.0296C231.851 91.0296 225.561 83.8893 225.561 75.5767C225.561 65.6135 232.276 59.4857 241.497 59.4857C244.854 59.4857 247.52 60.0186 250.557 61.9907V70.3552C248.692 68.7034 245.813 67.7451 242.989 67.7451C237.659 67.7451 234.463 70.9945 234.463 75.2577C234.463 79.5197 237.874 82.7703 242.615 82.7703C245.546 82.7703 247.785 81.9183 250.557 79.574V88.3652V88.3652Z" fill="#DDBB40"/>
<path id="a" d="M210.9 90.0702V86.8728H210.793C209.512 89.4841 205.995 91.0828 202.104 91.0828C193.366 91.0828 187.29 84.2095 187.29 75.2577C187.29 66.5197 193.631 59.4857 202.104 59.4857C205.73 59.4857 209.087 60.9249 210.793 63.6425H210.9V60.4983H219.745V90.0702H210.9V90.0702ZM210.9 75.2577C210.9 71.102 207.541 67.7451 203.383 67.7451C199.334 67.7451 196.136 71.102 196.136 75.364C196.136 79.4665 199.386 82.8235 203.492 82.8235C207.647 82.8235 210.9 79.5197 210.9 75.2577V75.2577Z" fill="#DDBB40"/>
<path id="r-1" d="M172.306 90.0702L163.193 77.3361H163.086V90.0702H153.44V50.6414H166.337C170.441 50.6414 173.586 51.1743 175.663 52.0794C179.927 53.9983 182.912 58.6337 182.912 64.2286C182.912 70.4627 179.182 75.5767 173.106 76.6425L183.818 90.0702H172.306V90.0702ZM166.817 70.4627C170.814 70.4627 173.265 68.597 173.265 64.8147C173.265 61.4046 170.708 59.4857 166.924 59.4857H163.086V70.4627H166.817Z" fill="#DDBB40"/>
<g id="cap-k">
<mask id="path-15-inside-1_2_2" fill="white">
<path d="M103.363 86.828L141.232 45.4766C145.648 40.6549 142.226 32.8854 135.688 32.8854H124.899C122.703 32.8854 120.615 33.8372 119.175 35.4945L80.1526 80.4017C76.6113 84.4771 74.6613 89.694 74.6613 95.0925V96.6911C74.6613 100.897 76.1488 104.967 78.8608 108.182L120.507 157.55C121.947 159.258 124.068 160.243 126.303 160.243H138.429C145.277 160.243 149.03 152.27 144.665 146.995L103.114 96.7798C100.702 93.8649 100.808 89.6183 103.363 86.828V86.828Z"/>
</mask>
<path d="M103.363 86.828L141.232 45.4766C145.648 40.6549 142.226 32.8854 135.688 32.8854H124.899C122.703 32.8854 120.615 33.8372 119.175 35.4945L80.1526 80.4017C76.6113 84.4771 74.6613 89.694 74.6613 95.0925V96.6911C74.6613 100.897 76.1488 104.967 78.8608 108.182L120.507 157.55C121.947 159.258 124.068 160.243 126.303 160.243H138.429C145.277 160.243 149.03 152.27 144.665 146.995L103.114 96.7798C100.702 93.8649 100.808 89.6183 103.363 86.828V86.828Z" fill="#D0912C" stroke="#D0912C" stroke-width="8" mask="url(#path-15-inside-1_2_2)"/>
</g>
<g id="cap-r">
<mask id="path-16-inside-2_2_2" fill="white">
<path d="M49.9841 98.2524C47.1677 94.4482 48.6621 89.0917 52.9708 87.131C54.794 86.3012 56.3724 85.3835 57.7196 84.4327C67.6098 77.7772 72.5549 66.9383 72.5549 54.5781C72.5549 45.0703 69.7019 34.2314 60.0019 26.0547C54.1058 21.1106 45.1666 16.5468 27.6687 16.5468L23.0981 16.5505C19.0037 16.5537 15.6863 19.8731 15.6863 23.9666V29.2873C15.6863 33.3831 19.0073 36.7034 23.104 36.7034H23.104C27.6687 36.7034 47.0686 36.8936 47.0686 55.7191C47.0686 68.1428 35.2339 72.2978 25.9354 73.6874C20.0684 74.5641 15.6863 79.5278 15.6863 85.4588L15.6863 89.3863C15.6863 91.2908 16.2867 93.1469 17.4022 94.6907L50.3637 140.308C51.7582 142.238 53.9949 143.381 56.3764 143.381H68.6766C74.7676 143.381 78.2625 136.448 74.6386 131.553L49.9841 98.2524V98.2524Z"/>
</mask>
<path d="M49.9841 98.2524C47.1677 94.4482 48.6621 89.0917 52.9708 87.131C54.794 86.3012 56.3724 85.3835 57.7196 84.4327C67.6098 77.7772 72.5549 66.9383 72.5549 54.5781C72.5549 45.0703 69.7019 34.2314 60.0019 26.0547C54.1058 21.1106 45.1666 16.5468 27.6687 16.5468L23.0981 16.5505C19.0037 16.5537 15.6863 19.8731 15.6863 23.9666V29.2873C15.6863 33.3831 19.0073 36.7034 23.104 36.7034H23.104C27.6687 36.7034 47.0686 36.8936 47.0686 55.7191C47.0686 68.1428 35.2339 72.2978 25.9354 73.6874C20.0684 74.5641 15.6863 79.5278 15.6863 85.4588L15.6863 89.3863C15.6863 91.2908 16.2867 93.1469 17.4022 94.6907L50.3637 140.308C51.7582 142.238 53.9949 143.381 56.3764 143.381H68.6766C74.7676 143.381 78.2625 136.448 74.6386 131.553L49.9841 98.2524V98.2524Z" fill="#DDBB40" stroke="#DDBB40" stroke-width="10" mask="url(#path-16-inside-2_2_2)"/>
</g>
</g>
</svg>
