<svg width="400" height="400" viewBox="0 0 400 400" fill="none" xmlns="http://www.w3.org/2000/svg">
<g id="simple 1">
<g id="Group">
<path id="Vector" d="M178.142 191.865L172.515 184.002H172.45V191.865H166.494V167.517H174.457C176.99 167.517 178.932 167.846 180.215 168.405C182.847 169.59 184.69 172.453 184.69 175.908C184.69 179.757 182.387 182.915 178.636 183.573L185.249 191.865H178.142V191.865ZM174.753 179.757C177.221 179.757 178.734 178.605 178.734 176.269C178.734 174.164 177.155 172.979 174.819 172.979H172.45V179.757H174.753V179.757Z" fill="#DDBB40"/>
<path id="Vector_2" d="M201.969 191.865V189.891H201.903C201.112 191.503 198.941 192.49 196.539 192.49C191.144 192.49 187.393 188.246 187.393 182.718C187.393 177.322 191.307 172.979 196.539 172.979C198.778 172.979 200.85 173.867 201.903 175.546H201.969V173.604H207.43V191.865H201.969V191.865ZM201.969 182.718C201.969 180.152 199.895 178.079 197.328 178.079C194.829 178.079 192.854 180.152 192.854 182.784C192.854 185.317 194.861 187.39 197.396 187.39C199.961 187.39 201.969 185.35 201.969 182.718V182.718Z" fill="#DDBB40"/>
<path id="Vector_3" d="M226.453 190.812C224.906 191.832 222.9 192.458 220.794 192.458C214.904 192.458 211.021 188.048 211.021 182.915C211.021 176.763 215.167 172.979 220.86 172.979C222.932 172.979 224.578 173.308 226.453 174.526V179.691C225.302 178.671 223.524 178.079 221.78 178.079C218.49 178.079 216.517 180.086 216.517 182.718C216.517 185.35 218.623 187.357 221.55 187.357C223.359 187.357 224.741 186.831 226.453 185.384V190.812V190.812Z" fill="#DDBB40"/>
<path id="Vector_4" d="M241.494 191.865V181.829C241.494 179.461 240.573 178.112 238.565 178.112C236.493 178.112 235.505 179.329 235.505 181.6V191.865H230.044V167.517H235.505V175.348C236.295 173.867 238.072 172.979 240.243 172.979C244.423 172.979 246.956 175.611 246.956 180.382V191.865H241.494V191.865Z" fill="#DDBB40"/>
<path id="Vector_5" d="M255.744 184.396C256.04 186.469 257.784 187.851 260.021 187.851C261.503 187.851 262.457 187.292 263.346 186.14H268.939C267.195 190.121 263.871 192.458 260.021 192.458C254.758 192.458 250.349 188.213 250.349 182.784C250.349 177.519 254.561 172.979 259.924 172.979C265.386 172.979 269.564 177.289 269.564 182.949C269.564 183.475 269.53 183.902 269.432 184.396H255.744V184.396ZM264.102 180.711C263.674 178.836 262.029 177.585 259.924 177.585C257.949 177.585 256.239 178.77 255.81 180.711H264.102Z" fill="#DDBB40"/>
<path id="Vector_6" d="M273.089 191.865V167.517H278.551V191.865H273.089V191.865Z" fill="#DDBB40"/>
<path id="Vector_7" d="M166.758 223.344V198.996H170.311V223.344H166.758V223.344ZM179.623 223.344L170.377 211.071L179.623 198.996H183.999L174.49 211.071L183.999 223.344H179.623Z" fill="#D0912C"/>
<path id="Vector_8" d="M199.567 223.344V213.44C199.567 209.525 198.052 207.749 195.026 207.749C192.031 207.749 190.222 209.92 190.222 213.474V223.344H186.8V198.996H190.222V207.057H190.287C191.373 205.444 193.117 204.623 195.388 204.623C199.73 204.623 202.988 207.387 202.988 212.388V223.344H199.567V223.344Z" fill="#D0912C"/>
<path id="Vector_9" d="M220.134 223.344V221.37H220.069C219.18 222.917 217.108 223.804 214.706 223.804C210.79 223.804 207.104 221.698 207.104 215.283V205.116H210.526V215.019C210.526 218.836 211.942 220.678 215.068 220.678C218.226 220.678 219.838 218.475 219.838 214.953V205.116H223.26V223.344H220.134V223.344Z" fill="#D0912C"/>
<path id="Vector_10" d="M228.168 223.344V205.116H231.359V206.761H231.425C232.248 205.544 233.662 204.754 236.064 204.623V208.143C233.103 208.242 231.59 210.051 231.59 213.112V223.344H228.168V223.344Z" fill="#D0912C"/>
<path id="Vector_11" d="M253.999 220.942C252.583 222.851 250.314 223.804 247.714 223.804C242.482 223.804 237.976 219.296 237.976 214.361C237.976 208.866 242.253 204.623 247.747 204.623C250.116 204.623 252.617 205.609 254.065 207.222V205.116H257.487V220.942C257.487 226.864 253.834 230.517 247.648 230.517C243.47 230.517 240.179 228.312 238.632 224.758H242.45C243.733 226.568 245.444 227.391 247.682 227.391C251.86 227.391 254.065 225.12 254.065 220.942H253.999V220.942ZM254.065 214.229C254.065 209.952 250.807 207.749 247.648 207.749C244.259 207.749 241.396 210.676 241.396 214.229C241.396 217.717 244.293 220.678 247.682 220.678C251.663 220.678 254.065 217.19 254.065 214.229V214.229Z" fill="#D0912C"/>
<path id="Vector_12" d="M262.361 203.01V198.996H265.783V203.01H262.361ZM262.361 223.344V205.116H265.783V223.344H262.361Z" fill="#D0912C"/>
<path id="Vector_13" d="M283.42 223.344V213.408C283.42 209.558 281.906 207.749 278.88 207.749C275.885 207.749 274.076 209.952 274.076 213.374V223.344H270.654V205.116H273.845V207.057H273.911C275.259 205.313 277.136 204.623 279.242 204.623C283.617 204.623 286.842 207.387 286.842 212.42V223.344H283.42V223.344Z" fill="#D0912C"/>
<path id="Vector_14" d="M306.687 223.344V220.515H306.621C305.338 222.686 303.036 223.804 300.435 223.804C295.106 223.804 290.763 219.791 290.763 214.526C290.763 208.702 294.941 204.623 300.304 204.623C302.969 204.623 305.207 205.609 306.621 207.682H306.687V205.116H310.109V223.344H306.687V223.344ZM306.753 214.263C306.753 210.71 304.187 207.749 300.403 207.749C296.981 207.749 294.184 210.676 294.184 214.263C294.184 217.685 296.981 220.678 300.403 220.678C303.956 220.678 306.753 217.717 306.753 214.263Z" fill="#D0912C"/>
</g>
<g id="Group_2">
<path id="Vector_15" d="M102.622 196.918C100.883 194.569 101.806 191.261 104.466 190.05C105.591 189.538 106.566 188.971 107.397 188.384C113.504 184.274 116.557 177.581 116.557 169.948C116.557 164.077 114.795 157.384 108.807 152.335C105.166 149.281 99.6475 146.463 88.8444 146.463L86.0226 146.466C83.4948 146.468 81.4467 148.517 81.4467 151.045V154.331C81.4467 156.86 83.497 158.91 86.0262 158.91V158.91C88.8444 158.91 100.822 159.028 100.822 170.653C100.822 178.325 93.5151 180.89 87.7744 181.748C84.1521 182.29 81.4466 185.355 81.4466 189.017L81.4467 191.443C81.4467 192.619 81.8174 193.765 82.5061 194.718L102.856 222.888C103.717 224.08 105.098 224.785 106.568 224.785H114.162C117.923 224.785 120.08 220.504 117.843 217.481L102.622 196.918V196.918Z" fill="#DDBB40"/>
<path id="Vector_16" d="M135.577 189.863L158.957 164.328C161.683 161.35 159.571 156.553 155.534 156.553H148.873C147.517 156.553 146.228 157.14 145.339 158.164L121.247 185.895C119.061 188.411 117.857 191.633 117.857 194.966V195.954C117.857 198.551 118.775 201.064 120.45 203.049L146.161 233.535C147.051 234.589 148.36 235.198 149.74 235.198H157.227C161.454 235.198 163.771 230.274 161.076 227.017L135.423 196.008C133.934 194.208 134 191.586 135.577 189.863V189.863Z" fill="#DDBB40"/>
</g>
</g>
</svg>
