<svg width="452" height="421" viewBox="0 0 452 421" fill="none">
<g id="TrueClicks">
<path id="square-line-bottom" d="M281 407L395 295.5" stroke="#2E27F5" stroke-width="6" stroke-linecap="round"/>
<path id="square-line-top" d="M69.5 233C61 243 58.6 271.6 73 284L120.5 333.5" stroke="#2E27F5" stroke-width="6" stroke-linecap="round"/>
<path id="purple-outer-line" d="M319 3C354.833 16 431.1 64.9 449.5 156.5" stroke="#2E27F5" stroke-width="5" stroke-linecap="round"/>
<path id="blue-outer-line" d="M132 398C97.608 380.567 27.2592 323.362 21 234" stroke="#5ACBF4" stroke-width="5" stroke-linecap="round"/>
<ellipse id="circle" cx="122" cy="131.5" rx="50" ry="49.5" fill="#5ACBF4"/>
<path id="triangle" d="M325.713 231.188C327.662 221.896 339.119 218.44 345.881 225.105L403.522 281.917C410.01 288.312 407.286 299.321 398.563 301.952L324.311 324.349C315.589 326.98 307.231 319.314 309.101 310.397L325.713 231.188Z" fill="#2E27F5"/>
<path id="purple-inner-line" d="M233 318L287 299" stroke="#2E27F5" stroke-width="6" stroke-linecap="round"/>
<path id="blue-inner-line" d="M260 152.5C238.333 135.5 185.8 113.4 147 169C133.833 189.333 120.6 241.2 175 278" stroke="#5ACBF4" stroke-width="5" stroke-linecap="round"/>
<path id="top-right-diagonal" d="M335 93L285 131" stroke="#2E27F5" stroke-width="6" stroke-linecap="round"/>
<path id="top-left-diagonal" d="M120.42 122.022L70 84.5815" stroke="#2E27F5" stroke-width="6" stroke-linecap="round"/>
<path id="bottom-right-diagonal" d="M332.982 237.009L282.206 200.052" stroke="#5ACBF4" stroke-width="6" stroke-linecap="round"/>
<path id="bottom-left-diagonal" d="M103.137 222.527L52 258.982" stroke="#5ACBF4" stroke-width="6" stroke-linecap="round"/>
<path id="blue-line-square" d="M160 31.5C152.783 34.1242 138.174 43.3984 136.568 59.7036C136.516 60.2299 136.528 60.7645 136.583 61.2905L144.5 136.5L151.5 201C153 208.5 160.9 223.5 170.5 225.5" stroke="#5ACBF4" stroke-width="6" stroke-linecap="round"/>
<rect id="rectangle " x="108" y="156" width="279" height="104" rx="20" fill="#EE81DA"/>
<rect id="square" x="89.3174" y="258.991" width="224.429" height="225.438" rx="20" transform="rotate(-44.3065 89.3174 258.991)" fill="#5ACBF4"/>
<path id="arrow" d="M196 362.522C195.333 357.355 196 260.022 196 260.022H126.195C125.401 260.022 124.606 259.936 123.845 259.713C114.39 256.939 110.961 249.712 109.673 244.196C109.061 241.574 110.108 238.901 112.02 237.005L234.5 115.522C246.9 105.522 258.667 111.355 263 115.522L383.798 239.245C385.224 240.705 386.186 242.61 386.097 244.649C385.7 253.683 379.263 257.896 373.742 259.66C372.924 259.922 372.065 260.022 371.206 260.022H300V362.522C299.648 370.268 292.296 375.742 287.698 378.192C286.597 378.779 285.356 379.022 284.108 379.022H213C201 378.222 196.667 367.688 196 362.522Z" fill="#2E27F5"/>
</g>
</svg>
