<svg width="329" height="168" viewBox="0 0 329 168" fill="none" xmlns="http://www.w3.org/2000/svg">
<g id="wagner-logo">
<path id="r" d="M296.744 106.315C295.783 103.515 295.141 99.7549 295.141 96.3946V82.9541C295.141 81.5941 294.26 80.4737 292.497 80.4737H290.814V106.315H277.991V42.3113H293.699C299.87 42.3113 307.323 45.8315 307.323 53.9922V68.313C307.323 71.3534 305.239 73.6735 301.954 75.3533C305.239 77.0337 307.563 79.3538 307.563 82.3937V95.5945C307.563 99.6752 308.445 103.195 309.166 106.315H296.744V106.315ZM294.821 56.2321C294.821 54.3923 294.02 53.6719 292.657 53.6719H290.814V69.9132H292.657C294.02 69.9132 294.821 69.1928 294.821 67.353V56.2321V56.2321Z" fill="#BF5E28"/>
<g id="text">
<g id="Group">
<path id="Vector" d="M192.159 135.185H192.216V133.019H193.654V138.83H192.216V138.428C192.216 137.558 191.927 136.805 191.347 136.169C190.768 135.532 190.037 135.05 189.155 134.719C188.274 134.389 187.393 134.224 186.511 134.224C185.217 134.224 184.127 134.576 183.241 135.279C182.355 135.982 181.912 136.893 181.912 138.012C181.912 139.084 182.314 139.959 183.119 140.638C183.923 141.317 185.198 141.882 186.942 142.331C188.638 142.742 190.006 143.168 191.045 143.608C192.085 144.048 192.957 144.689 193.661 145.531C194.366 146.373 194.718 147.501 194.718 148.917C194.718 150.065 194.418 151.1 193.819 152.023C193.22 152.946 192.411 153.673 191.391 154.204C190.37 154.735 189.184 155 187.833 155C186.501 155 185.315 154.725 184.276 154.175C183.236 153.625 182.39 152.839 181.739 151.815H181.653V154.642H180.201V147.209H181.653V147.467C181.653 148.683 181.921 149.742 182.458 150.645C182.995 151.55 183.73 152.241 184.664 152.719C185.598 153.197 186.645 153.436 187.805 153.436C189.27 153.436 190.489 153.02 191.462 152.188C192.434 151.356 192.921 150.232 192.921 148.816C192.921 147.63 192.499 146.688 191.656 145.989C190.813 145.291 189.438 144.708 187.531 144.239C185.951 143.847 184.649 143.426 183.629 142.977C182.609 142.527 181.794 141.905 181.186 141.111C180.577 140.318 180.273 139.284 180.273 138.012C180.273 136.95 180.546 136.013 181.092 135.2C181.639 134.387 182.393 133.76 183.356 133.32C184.319 132.88 185.39 132.66 186.569 132.66C187.766 132.66 188.82 132.871 189.73 133.292C190.64 133.713 191.45 134.344 192.159 135.185V135.185Z" fill="#BF5E28"/>
<path id="Vector_2" d="M216.086 136.448H216.143V133.019H217.623V139.921H216.114C215.682 138.199 214.742 136.819 213.29 135.781C211.838 134.744 210.13 134.224 208.166 134.224C206.46 134.224 204.925 134.636 203.56 135.458C202.194 136.281 201.135 137.426 200.383 138.894C199.631 140.363 199.255 141.977 199.255 143.737C199.255 145.583 199.636 147.241 200.398 148.709C201.159 150.177 202.228 151.327 203.603 152.159C204.977 152.992 206.547 153.408 208.309 153.408C212.458 153.408 215.333 151.184 216.933 146.736L218.356 147.525C217.532 149.935 216.26 151.779 214.54 153.056C212.82 154.333 210.724 154.971 208.252 154.971C206.135 154.971 204.257 154.505 202.618 153.572C200.98 152.64 199.71 151.337 198.81 149.663C197.909 147.989 197.458 146.062 197.458 143.881C197.458 141.671 197.914 139.719 198.824 138.026C199.734 136.333 200.994 135.016 202.604 134.074C204.213 133.132 206.029 132.66 208.051 132.66C211.462 132.66 214.14 133.923 216.086 136.448V136.448Z" fill="#BF5E28"/>
<path id="Vector_3" d="M224.287 134.454V153.207H227.061V154.642H219.818V153.207H222.52V134.454H219.818V133.019H227.061V134.454H224.287Z" fill="#BF5E28"/>
<path id="Vector_4" d="M243.816 138.271V134.454H232.476V142.804H241.488V144.239H232.476V153.207H243.816V149.318H245.282V154.642H227.92V153.207H230.708V134.454H227.92V133.019H245.253V138.271H243.816V138.271Z" fill="#BF5E28"/>
<path id="Vector_5" d="M264.464 134.454H261.432V133.019H268.82V134.454H265.974V154.928H264.321L251.256 135.042V153.207H254.317V154.642H246.873V153.207H249.747V134.454H246.873V133.019H251.96L264.464 152.087V134.454V134.454Z" fill="#BF5E28"/>
<path id="Vector_6" d="M288.636 136.448H288.693V133.019H290.173V139.921H288.664C288.232 138.199 287.292 136.819 285.84 135.781C284.388 134.744 282.68 134.224 280.716 134.224C279.01 134.224 277.475 134.636 276.11 135.458C274.744 136.281 273.685 137.426 272.933 138.894C272.181 140.363 271.805 141.977 271.805 143.737C271.805 145.583 272.186 147.241 272.948 148.709C273.709 150.177 274.778 151.327 276.153 152.159C277.527 152.992 279.097 153.408 280.859 153.408C285.008 153.408 287.883 151.184 289.483 146.736L290.906 147.525C290.082 149.935 288.81 151.779 287.09 153.056C285.37 154.333 283.274 154.971 280.802 154.971C278.685 154.971 276.807 154.505 275.168 153.572C273.53 152.64 272.26 151.337 271.36 149.663C270.459 147.989 270.008 146.062 270.008 143.881C270.008 141.671 270.464 139.719 271.374 138.026C272.284 136.333 273.544 135.016 275.154 134.074C276.763 133.132 278.579 132.66 280.601 132.66C284.012 132.66 286.69 133.923 288.636 136.448V136.448Z" fill="#BF5E28"/>
<path id="Vector_7" d="M308.177 138.271V134.454H296.837V142.804H305.849V144.239H296.837V153.207H308.177V149.318H309.643V154.642H292.281V153.207H295.07V134.454H292.281V133.019H309.615V138.271H308.177V138.271Z" fill="#BF5E28"/>
</g>
<g id="Group_2">
<path id="Vector_8" d="M260.136 116.86V128.674H261.884V129.578H257.32V128.674H259.023V116.86H257.32V115.956H261.884V116.86H260.136Z" fill="#BF5E28"/>
<g id="Group_3">
<path id="Vector_9" d="M172.876 119.283V116.86H166.293V122.103H171.319V123.006H166.293V128.674H168.114V129.578H163.406V128.674H165.18V116.86H163.406V115.956H173.791V119.283H172.876V119.283Z" fill="#BF5E28"/>
<path id="Vector_10" d="M184.675 119.3C184.675 121.144 183.63 122.268 181.542 122.672L184.267 128.674H186.015V129.578H183.489L180.41 122.78H177.386V128.674H179.297V129.578H174.253V128.674H176.272V116.86H174.253V115.956H180.836C181.976 115.956 182.901 116.257 183.611 116.86C184.32 117.462 184.675 118.276 184.675 119.3V119.3ZM183.543 119.319C183.543 118.529 183.281 117.922 182.755 117.497C182.23 117.072 181.548 116.86 180.709 116.86H177.386V121.877H180.283C181.382 121.877 182.2 121.658 182.737 121.221C183.274 120.784 183.543 120.15 183.543 119.319V119.319Z" fill="#BF5E28"/>
<path id="Vector_11" d="M196.228 119.264V116.86H189.084V122.12H194.762V123.025H189.084V128.674H196.228V126.224H197.152V129.578H186.214V128.674H187.971V116.86H186.214V115.956H197.134V119.264H196.228V119.264Z" fill="#BF5E28"/>
<path id="Vector_12" d="M208.389 119.264V116.86H201.244V122.12H206.922V123.025H201.244V128.674H208.389V126.224H209.313V129.578H198.374V128.674H200.131V116.86H198.374V115.956H209.294V119.264H208.389V119.264Z" fill="#BF5E28"/>
<path id="Vector_13" d="M218.43 116.86V128.674H220.178V129.578H215.614V128.674H217.317V116.86H215.614V115.956H220.178V116.86H218.43Z" fill="#BF5E28"/>
<path id="Vector_14" d="M231.804 116.86H229.894V115.956H234.547V116.86H232.755V129.759H231.713L223.483 117.231V128.674H225.412V129.578H220.721V128.674H222.532V116.86H220.721V115.956H223.927L231.804 127.969V116.86V116.86Z" fill="#BF5E28"/>
<path id="Vector_15" d="M243.213 117.321H243.249V115.956H244.155V119.617H243.249V119.364C243.249 118.815 243.066 118.341 242.701 117.94C242.336 117.539 241.876 117.235 241.32 117.027C240.765 116.819 240.21 116.715 239.655 116.715C238.839 116.715 238.153 116.936 237.595 117.379C237.036 117.822 236.757 118.397 236.757 119.102C236.757 119.776 237.01 120.328 237.517 120.756C238.024 121.184 238.828 121.539 239.926 121.822C240.994 122.081 241.856 122.35 242.511 122.627C243.166 122.904 243.715 123.308 244.159 123.838C244.603 124.369 244.825 125.079 244.825 125.971C244.825 126.694 244.636 127.347 244.259 127.928C243.881 128.51 243.371 128.968 242.729 129.302C242.086 129.637 241.339 129.804 240.487 129.804C239.649 129.804 238.901 129.631 238.246 129.284C237.592 128.938 237.059 128.442 236.648 127.797H236.594V129.578H235.679V124.896H236.594V125.058C236.594 125.824 236.763 126.491 237.101 127.061C237.439 127.63 237.903 128.065 238.491 128.367C239.079 128.668 239.739 128.819 240.47 128.819C241.393 128.819 242.161 128.557 242.774 128.032C243.386 127.508 243.693 126.8 243.693 125.908C243.693 125.161 243.427 124.567 242.896 124.127C242.365 123.687 241.499 123.32 240.297 123.025C239.301 122.777 238.482 122.512 237.839 122.229C237.196 121.946 236.683 121.554 236.3 121.054C235.916 120.554 235.725 119.903 235.725 119.102C235.725 118.433 235.897 117.842 236.241 117.33C236.585 116.818 237.06 116.423 237.667 116.146C238.274 115.869 238.948 115.73 239.691 115.73C240.445 115.73 241.109 115.862 241.683 116.128C242.256 116.393 242.766 116.791 243.213 117.321V117.321Z" fill="#BF5E28"/>
<path id="Vector_16" d="M255.618 120.249V116.86H251.67V128.674H253.535V129.578H248.682V128.674H250.556V116.86H246.609V120.249H245.676V115.956H256.541V120.249H255.618V120.249Z" fill="#BF5E28"/>
<path id="Vector_17" d="M272.586 120.249V116.86H268.638V128.674H270.503V129.578H265.65V128.674H267.525V116.86H263.577V120.249H262.644V115.956H273.51V120.249H272.586Z" fill="#BF5E28"/>
<path id="Vector_18" d="M276.942 116.86V125.655C276.942 126.644 277.245 127.415 277.852 127.969C278.458 128.523 279.335 128.801 280.482 128.801C281.683 128.801 282.589 128.532 283.198 127.996C283.808 127.46 284.113 126.697 284.113 125.709V116.86H282.302V115.956H286.901V116.86H285.154V125.691C285.154 126.505 284.965 127.223 284.588 127.847C284.211 128.471 283.676 128.95 282.986 129.284C282.294 129.619 281.484 129.786 280.554 129.786C279.033 129.786 277.862 129.433 277.041 128.728C276.22 128.023 275.81 127.005 275.81 125.673V116.86H274.044V115.956H278.644V116.86H276.942V116.86Z" fill="#BF5E28"/>
<path id="Vector_19" d="M297.414 120.249V116.86H293.466V128.674H295.331V129.578H290.478V128.674H292.352V116.86H288.405V120.249H287.472V115.956H298.337V120.249H297.414Z" fill="#BF5E28"/>
<path id="Vector_20" d="M309.076 119.264V116.86H301.932V122.12H307.609V123.025H301.932V128.674H309.076V126.224H310V129.578H299.062V128.674H300.819V116.86H299.062V115.956H309.982V119.264H309.076V119.264Z" fill="#BF5E28"/>
<g id="Group_4">
<path id="Vector_21" d="M171.355 142.839C171.355 143.557 171.187 144.211 170.85 144.798C170.513 145.386 170.058 145.849 169.483 146.188C168.908 146.528 168.276 146.697 167.586 146.697C166.801 146.697 166.115 146.529 165.526 146.194C164.938 145.857 164.483 145.386 164.162 144.78C163.84 144.175 163.68 143.482 163.68 142.702C163.68 141.956 163.852 141.289 164.197 140.702C164.542 140.114 165.008 139.654 165.595 139.321C166.182 138.989 166.816 138.823 167.5 138.823C168.277 138.823 168.957 138.996 169.539 139.342C170.12 139.688 170.569 140.166 170.883 140.777C171.198 141.389 171.355 142.075 171.355 142.839V142.839ZM167.575 146.145C168.191 146.145 168.738 145.988 169.216 145.675C169.695 145.36 170.067 144.943 170.333 144.423C170.598 143.904 170.731 143.347 170.731 142.753C170.731 142.091 170.591 141.502 170.31 140.987C170.029 140.473 169.639 140.075 169.141 139.795C168.642 139.515 168.081 139.375 167.459 139.375C166.877 139.375 166.347 139.52 165.869 139.81C165.39 140.101 165.011 140.503 164.733 141.018C164.453 141.533 164.314 142.111 164.314 142.753C164.314 143.431 164.456 144.028 164.74 144.543C165.024 145.057 165.411 145.453 165.901 145.73C166.392 146.007 166.95 146.145 167.575 146.145V146.145Z" fill="#BF5E28"/>
<path id="Vector_22" d="M177.193 140.813V139.456H173.505V142.393H176.321V142.899H173.505V146.074H174.525V146.581H171.887V146.074H172.881V139.456H171.887V138.949H177.705V140.813H177.193V140.813Z" fill="#BF5E28"/>
</g>
</g>
</g>
</g>
<g id="ne">
<path id="Vector_23" d="M216.628 106.373L202.181 76.2463V106.373H186.771V42.2736H201.699L215.504 72.9609V42.2736H230.834V106.373H216.628V106.373Z" fill="#BF5E28"/>
<path id="Vector_24" d="M236.614 106.373V42.2736H270.564V54.8529H253.87V67.4323H264.865V79.6116H253.87V92.9119H270.564V106.373H236.614Z" fill="#BF5E28"/>
</g>
<g id="ag">
<path id="a" d="M151.091 106.248L150.612 94.6791H146.216L145.497 106.248H138.863L144.058 42.4175H153.489L158.765 106.248H151.091ZM148.774 61.0881L146.856 86.5404H150.132L148.774 61.0881V61.0881Z" fill="#BF5E28"/>
<path id="g" d="M174.99 106.248L174.351 104.733C173.311 106.248 171.234 107.046 169.236 107.046C164.2 107.046 160.923 103.296 160.923 96.1154V52.5504C160.923 46.0876 164.92 41.6196 170.115 41.6196C175.309 41.6196 179.306 46.0876 179.306 52.5504V65.6361H172.033V51.992C172.033 50.5562 171.393 49.6782 170.115 49.6782C168.916 49.6782 168.196 50.5562 168.196 51.992V97.4718C168.196 98.9076 168.995 99.7856 170.194 99.7856C171.473 99.7856 172.272 98.9076 172.272 97.4718V81.9129H170.515V75.0511H179.625V106.248H174.99V106.248Z" fill="#BF5E28"/>
</g>
<g id="big w">
<mask id="path-28-outside-1_1_2" maskUnits="userSpaceOnUse" x="11" y="21" width="137" height="110" fill="black">
<rect fill="white" x="11" y="21" width="137" height="110"/>
<path d="M72.6337 48.7941L69.6092 39.3891C69.2073 38.1393 68.167 37.1992 66.8813 36.9241L65.3976 36.6065C63.7038 36.244 62.4939 34.7497 62.4939 33.0204V25.6676C62.4939 23.6421 64.1387 22 66.1677 22H102.386C104.415 22 106.06 23.6421 106.06 25.6676V32.9786C106.06 34.7267 104.824 36.2319 103.107 36.5749L103.031 36.5901C100.929 37.0099 99.6324 39.1291 100.217 41.1874L114.681 92.0793H115.297L126.062 41.0649C126.489 39.0415 125.157 37.0659 123.118 36.6993L122.168 36.5285C120.419 36.2139 119.146 34.6938 119.146 32.9189V25.6676C119.146 23.6421 120.791 22 122.82 22H143.182C145.211 22 146.856 23.6421 146.856 25.6676V32.9657C146.856 34.7196 145.612 36.2281 143.888 36.565L142.138 36.9068C140.702 37.1873 139.57 38.2916 139.256 39.7181L120.088 126.698C119.717 128.38 118.225 129.578 116.5 129.578H99.8664C98.2434 129.578 96.8127 128.515 96.347 126.962L79.9088 72.1686C79.7734 71.7175 79.1291 71.7307 79.0125 72.187L65.0468 126.817C64.6316 128.441 63.1661 129.578 61.487 129.578H44.557C42.8819 129.578 41.4189 128.447 40.9999 126.828L18.4045 39.5104C18.0636 38.1932 17.0204 37.1725 15.6944 36.8589L14.8268 36.6537C13.17 36.2618 12 34.7847 12 33.0849V25.6676C12 23.6421 13.6448 22 15.6739 22H50.8148C52.8438 22 54.4886 23.6421 54.4886 25.6676V33.0059C54.4886 34.7418 53.2697 36.2399 51.5678 36.5957L51.5678 36.5957C49.5423 37.0191 48.2667 39.0283 48.7475 41.0376L61.1087 92.6936H61.5708L72.6868 50.8554C72.8669 50.1774 72.8485 49.462 72.6337 48.7941V48.7941Z"/>
</mask>
<path d="M72.6337 48.7941L69.6092 39.3891C69.2073 38.1393 68.167 37.1992 66.8813 36.9241L65.3976 36.6065C63.7038 36.244 62.4939 34.7497 62.4939 33.0204V25.6676C62.4939 23.6421 64.1387 22 66.1677 22H102.386C104.415 22 106.06 23.6421 106.06 25.6676V32.9786C106.06 34.7267 104.824 36.2319 103.107 36.5749L103.031 36.5901C100.929 37.0099 99.6324 39.1291 100.217 41.1874L114.681 92.0793H115.297L126.062 41.0649C126.489 39.0415 125.157 37.0659 123.118 36.6993L122.168 36.5285C120.419 36.2139 119.146 34.6938 119.146 32.9189V25.6676C119.146 23.6421 120.791 22 122.82 22H143.182C145.211 22 146.856 23.6421 146.856 25.6676V32.9657C146.856 34.7196 145.612 36.2281 143.888 36.565L142.138 36.9068C140.702 37.1873 139.57 38.2916 139.256 39.7181L120.088 126.698C119.717 128.38 118.225 129.578 116.5 129.578H99.8664C98.2434 129.578 96.8127 128.515 96.347 126.962L79.9088 72.1686C79.7734 71.7175 79.1291 71.7307 79.0125 72.187L65.0468 126.817C64.6316 128.441 63.1661 129.578 61.487 129.578H44.557C42.8819 129.578 41.4189 128.447 40.9999 126.828L18.4045 39.5104C18.0636 38.1932 17.0204 37.1725 15.6944 36.8589L14.8268 36.6537C13.17 36.2618 12 34.7847 12 33.0849V25.6676C12 23.6421 13.6448 22 15.6739 22H50.8148C52.8438 22 54.4886 23.6421 54.4886 25.6676V33.0059C54.4886 34.7418 53.2697 36.2399 51.5678 36.5957L51.5678 36.5957C49.5423 37.0191 48.2667 39.0283 48.7475 41.0376L61.1087 92.6936H61.5708L72.6868 50.8554C72.8669 50.1774 72.8485 49.462 72.6337 48.7941V48.7941Z" fill="#BF5E28"/>
<path d="M72.6337 48.7941L69.6092 39.3891C69.2073 38.1393 68.167 37.1992 66.8813 36.9241L65.3976 36.6065C63.7038 36.244 62.4939 34.7497 62.4939 33.0204V25.6676C62.4939 23.6421 64.1387 22 66.1677 22H102.386C104.415 22 106.06 23.6421 106.06 25.6676V32.9786C106.06 34.7267 104.824 36.2319 103.107 36.5749L103.031 36.5901C100.929 37.0099 99.6324 39.1291 100.217 41.1874L114.681 92.0793H115.297L126.062 41.0649C126.489 39.0415 125.157 37.0659 123.118 36.6993L122.168 36.5285C120.419 36.2139 119.146 34.6938 119.146 32.9189V25.6676C119.146 23.6421 120.791 22 122.82 22H143.182C145.211 22 146.856 23.6421 146.856 25.6676V32.9657C146.856 34.7196 145.612 36.2281 143.888 36.565L142.138 36.9068C140.702 37.1873 139.57 38.2916 139.256 39.7181L120.088 126.698C119.717 128.38 118.225 129.578 116.5 129.578H99.8664C98.2434 129.578 96.8127 128.515 96.347 126.962L79.9088 72.1686C79.7734 71.7175 79.1291 71.7307 79.0125 72.187L65.0468 126.817C64.6316 128.441 63.1661 129.578 61.487 129.578H44.557C42.8819 129.578 41.4189 128.447 40.9999 126.828L18.4045 39.5104C18.0636 38.1932 17.0204 37.1725 15.6944 36.8589L14.8268 36.6537C13.17 36.2618 12 34.7847 12 33.0849V25.6676C12 23.6421 13.6448 22 15.6739 22H50.8148C52.8438 22 54.4886 23.6421 54.4886 25.6676V33.0059C54.4886 34.7418 53.2697 36.2399 51.5678 36.5957L51.5678 36.5957C49.5423 37.0191 48.2667 39.0283 48.7475 41.0376L61.1087 92.6936H61.5708L72.6868 50.8554C72.8669 50.1774 72.8485 49.462 72.6337 48.7941V48.7941Z" stroke="#BF5E28" stroke-width="2" mask="url(#path-28-outside-1_1_2)"/>
</g>
</g>
</svg>
