<svg width="298" height="133" viewBox="0 0 298 133" fill="none" xmlns="http://www.w3.org/2000/svg">
<g id="wagner-logo" clip-path="url(#clip0_1_2)">
<g id="logo-group">
<path id="Vector" d="M284.744 84.3155C283.783 81.5152 283.141 77.7549 283.141 74.3946V60.9541C283.141 59.5941 282.26 58.4737 280.497 58.4737H278.814V84.3155H265.991V20.3113H281.699C287.87 20.3113 295.323 23.8315 295.323 31.9922V46.313C295.323 49.3534 293.239 51.6735 289.954 53.3533C293.239 55.0337 295.563 57.3538 295.563 60.3937V73.5945C295.563 77.6752 296.445 81.1953 297.166 84.3155H284.744V84.3155ZM282.821 34.232C282.821 32.3923 282.02 31.6719 280.657 31.6719H278.814V47.9132H280.657C282.02 47.9132 282.821 47.1928 282.821 45.353V34.232V34.232Z" fill="#4B3F18"/>
<g id="Group">
<path id="Vector_2" d="M180.159 113.185H180.217V111.019H181.654V116.83H180.217V116.428C180.217 115.558 179.927 114.805 179.347 114.169C178.768 113.532 178.037 113.05 177.155 112.719C176.274 112.389 175.393 112.224 174.511 112.224C173.217 112.224 172.127 112.576 171.241 113.279C170.355 113.982 169.912 114.893 169.912 116.012C169.912 117.084 170.314 117.959 171.119 118.638C171.923 119.317 173.198 119.882 174.942 120.331C176.638 120.742 178.006 121.168 179.045 121.608C180.085 122.048 180.957 122.689 181.661 123.531C182.366 124.373 182.718 125.501 182.718 126.917C182.718 128.065 182.418 129.1 181.819 130.023C181.22 130.946 180.411 131.673 179.391 132.204C178.37 132.735 177.184 133 175.833 133C174.501 133 173.315 132.725 172.276 132.175C171.236 131.625 170.39 130.839 169.739 129.815H169.653V132.642H168.201V125.209H169.653V125.467C169.653 126.683 169.921 127.742 170.458 128.645C170.995 129.55 171.73 130.241 172.664 130.719C173.598 131.197 174.645 131.436 175.805 131.436C177.27 131.436 178.489 131.02 179.462 130.188C180.434 129.356 180.921 128.232 180.921 126.816C180.921 125.63 180.499 124.688 179.656 123.989C178.813 123.291 177.438 122.708 175.531 122.239C173.951 121.847 172.649 121.426 171.629 120.977C170.609 120.527 169.794 119.905 169.186 119.111C168.577 118.318 168.273 117.284 168.273 116.012C168.273 114.95 168.546 114.013 169.092 113.2C169.639 112.387 170.393 111.76 171.356 111.32C172.319 110.88 173.39 110.66 174.569 110.66C175.766 110.66 176.82 110.871 177.73 111.292C178.64 111.713 179.45 112.344 180.159 113.185V113.185Z" fill="#4B3F18"/>
<path id="Vector_3" d="M204.086 114.448H204.143V111.019H205.623V117.921H204.114C203.682 116.199 202.742 114.819 201.29 113.781C199.838 112.744 198.13 112.224 196.166 112.224C194.46 112.224 192.925 112.636 191.56 113.458C190.194 114.281 189.135 115.426 188.383 116.894C187.631 118.363 187.255 119.977 187.255 121.737C187.255 123.583 187.636 125.241 188.398 126.709C189.159 128.177 190.228 129.327 191.603 130.159C192.977 130.992 194.547 131.408 196.309 131.408C200.458 131.408 203.333 129.184 204.933 124.736L206.356 125.525C205.532 127.935 204.26 129.779 202.54 131.056C200.82 132.333 198.724 132.971 196.252 132.971C194.135 132.971 192.257 132.505 190.618 131.572C188.98 130.64 187.71 129.337 186.81 127.663C185.909 125.989 185.458 124.062 185.458 121.881C185.458 119.671 185.914 117.719 186.824 116.026C187.734 114.333 188.994 113.016 190.604 112.074C192.213 111.132 194.029 110.66 196.051 110.66C199.462 110.66 202.14 111.923 204.086 114.448V114.448Z" fill="#4B3F18"/>
<path id="Vector_4" d="M212.288 112.454V131.207H215.061V132.642H207.818V131.207H210.52V112.454H207.818V111.019H215.061V112.454H212.288Z" fill="#4B3F18"/>
<path id="Vector_5" d="M231.816 116.271V112.454H220.476V120.805H229.488V122.239H220.476V131.207H231.816V127.318H233.282V132.642H215.92V131.207H218.708V112.454H215.92V111.019H233.253V116.271H231.816V116.271Z" fill="#4B3F18"/>
<path id="Vector_6" d="M252.464 112.454H249.432V111.019H256.82V112.454H253.974V132.928H252.321L239.256 113.042V131.207H242.317V132.642H234.873V131.207H237.747V112.454H234.873V111.019H239.96L252.464 130.087V112.454V112.454Z" fill="#4B3F18"/>
<path id="Vector_7" d="M276.636 114.448H276.693V111.019H278.173V117.921H276.664C276.232 116.199 275.292 114.819 273.84 113.781C272.388 112.744 270.68 112.224 268.716 112.224C267.01 112.224 265.475 112.636 264.11 113.458C262.744 114.281 261.685 115.426 260.933 116.894C260.181 118.363 259.805 119.977 259.805 121.737C259.805 123.583 260.186 125.241 260.948 126.709C261.709 128.177 262.778 129.327 264.153 130.159C265.527 130.992 267.097 131.408 268.859 131.408C273.008 131.408 275.883 129.184 277.483 124.736L278.906 125.525C278.082 127.935 276.81 129.779 275.09 131.056C273.37 132.333 271.274 132.971 268.802 132.971C266.685 132.971 264.807 132.505 263.168 131.572C261.53 130.64 260.26 129.337 259.36 127.663C258.459 125.989 258.008 124.062 258.008 121.881C258.008 119.671 258.464 117.719 259.374 116.026C260.284 114.333 261.544 113.016 263.154 112.074C264.763 111.132 266.579 110.66 268.601 110.66C272.012 110.66 274.69 111.923 276.636 114.448V114.448Z" fill="#4B3F18"/>
<path id="Vector_8" d="M296.177 116.271V112.454H284.837V120.805H293.849V122.239H284.837V131.207H296.177V127.318H297.643V132.642H280.281V131.207H283.07V112.454H280.281V111.019H297.615V116.271H296.177V116.271Z" fill="#4B3F18"/>
</g>
<g id="Group_2">
<path id="Vector_9" d="M248.136 94.8598V106.674H249.884V107.578H245.32V106.674H247.023V94.8598H245.32V93.9557H249.884V94.8598H248.136Z" fill="#4B3F18"/>
<g id="Group_3">
<path id="Vector_10" d="M160.876 97.2825V94.8598H154.293V100.103H159.319V101.006H154.293V106.674H156.114V107.578H151.406V106.674H153.18V94.8598H151.406V93.9557H161.791V97.2825H160.876V97.2825Z" fill="#4B3F18"/>
<path id="Vector_11" d="M172.675 97.3003C172.675 99.1441 171.63 100.268 169.542 100.672L172.267 106.674H174.015V107.578H171.489L168.41 100.78H165.386V106.674H167.297V107.578H162.253V106.674H164.272V94.8598H162.253V93.9557H168.836C169.976 93.9557 170.901 94.2572 171.611 94.8598C172.32 95.4624 172.675 96.2761 172.675 97.3003V97.3003ZM171.543 97.3186C171.543 96.5292 171.281 95.9216 170.755 95.497C170.23 95.0724 169.548 94.8598 168.709 94.8598H165.386V99.8767H168.283C169.382 99.8767 170.2 99.6582 170.737 99.2213C171.274 98.7843 171.543 98.1501 171.543 97.3186V97.3186Z" fill="#4B3F18"/>
<path id="Vector_12" d="M184.228 97.2642V94.8598H177.084V100.12H182.762V101.025H177.084V106.674H184.228V104.224H185.152V107.578H174.214V106.674H175.971V94.8598H174.214V93.9557H185.134V97.2642H184.228V97.2642Z" fill="#4B3F18"/>
<path id="Vector_13" d="M196.389 97.2642V94.8598H189.244V100.12H194.922V101.025H189.244V106.674H196.389V104.224H197.313V107.578H186.374V106.674H188.131V94.8598H186.374V93.9557H197.294V97.2642H196.389V97.2642Z" fill="#4B3F18"/>
<path id="Vector_14" d="M206.43 94.8598V106.674H208.178V107.578H203.614V106.674H205.317V94.8598H203.614V93.9557H208.178V94.8598H206.43Z" fill="#4B3F18"/>
<path id="Vector_15" d="M219.804 94.8598H217.894V93.9557H222.547V94.8598H220.755V107.759H219.713L211.483 95.2306V106.674H213.412V107.578H208.721V106.674H210.532V94.8598H208.721V93.9557H211.927L219.804 105.969V94.8598V94.8598Z" fill="#4B3F18"/>
<path id="Vector_16" d="M231.213 95.3205H231.249V93.9557H232.155V97.6167H231.249V97.3636C231.249 96.8154 231.066 96.3408 230.701 95.9399C230.336 95.539 229.876 95.235 229.32 95.0269C228.765 94.8193 228.21 94.715 227.655 94.715C226.839 94.715 226.153 94.9365 225.595 95.3794C225.036 95.8223 224.757 96.3967 224.757 97.1016C224.757 97.7764 225.01 98.328 225.517 98.7556C226.024 99.1837 226.828 99.5391 227.926 99.8224C228.994 100.081 229.856 100.35 230.511 100.627C231.166 100.904 231.715 101.308 232.159 101.838C232.603 102.369 232.825 103.079 232.825 103.971C232.825 104.694 232.636 105.347 232.259 105.928C231.881 106.51 231.371 106.968 230.729 107.302C230.086 107.637 229.339 107.804 228.487 107.804C227.649 107.804 226.901 107.631 226.246 107.284C225.592 106.938 225.059 106.442 224.648 105.797H224.594V107.578H223.679V102.896H224.594V103.058C224.594 103.824 224.763 104.491 225.101 105.061C225.439 105.63 225.903 106.065 226.491 106.367C227.079 106.668 227.739 106.819 228.47 106.819C229.393 106.819 230.161 106.557 230.774 106.032C231.386 105.508 231.693 104.8 231.693 103.908C231.693 103.161 231.427 102.567 230.896 102.127C230.365 101.687 229.499 101.32 228.297 101.025C227.301 100.777 226.482 100.512 225.839 100.229C225.196 99.9459 224.683 99.5544 224.3 99.0542C223.916 98.5539 223.725 97.9029 223.725 97.1016C223.725 96.4328 223.897 95.8421 224.241 95.3299C224.585 94.8178 225.06 94.4229 225.667 94.1455C226.274 93.8687 226.948 93.7298 227.691 93.7298C228.445 93.7298 229.109 93.8623 229.683 94.1277C230.256 94.3927 230.766 94.7906 231.213 95.3205V95.3205Z" fill="#4B3F18"/>
<path id="Vector_17" d="M243.618 98.2494V94.8598H239.67V106.674H241.535V107.578H236.682V106.674H238.556V94.8598H234.609V98.2494H233.676V93.9557H244.541V98.2494H243.618V98.2494Z" fill="#4B3F18"/>
<path id="Vector_18" d="M260.586 98.2494V94.8598H256.638V106.674H258.503V107.578H253.65V106.674H255.525V94.8598H251.577V98.2494H250.644V93.9557H261.51V98.2494H260.586Z" fill="#4B3F18"/>
<path id="Vector_19" d="M264.942 94.8598V103.655C264.942 104.644 265.245 105.415 265.852 105.969C266.458 106.523 267.335 106.801 268.482 106.801C269.683 106.801 270.589 106.532 271.198 105.996C271.808 105.46 272.113 104.697 272.113 103.709V94.8598H270.302V93.9557H274.901V94.8598H273.154V103.691C273.154 104.505 272.965 105.223 272.588 105.847C272.211 106.471 271.676 106.95 270.986 107.284C270.294 107.619 269.484 107.786 268.554 107.786C267.033 107.786 265.862 107.433 265.041 106.728C264.22 106.023 263.81 105.005 263.81 103.673V94.8598H262.044V93.9557H266.644V94.8598H264.942V94.8598Z" fill="#4B3F18"/>
<path id="Vector_20" d="M285.414 98.2494V94.8598H281.466V106.674H283.331V107.578H278.478V106.674H280.352V94.8598H276.405V98.2494H275.472V93.9557H286.337V98.2494H285.414Z" fill="#4B3F18"/>
<path id="Vector_21" d="M297.076 97.2642V94.8598H289.932V100.12H295.609V101.025H289.932V106.674H297.076V104.224H298V107.578H287.062V106.674H288.819V94.8598H287.062V93.9557H297.982V97.2642H297.076V97.2642Z" fill="#4B3F18"/>
<g id="Group_4">
<path id="Vector_22" d="M159.355 120.839C159.355 121.557 159.187 122.211 158.85 122.798C158.513 123.386 158.058 123.849 157.483 124.188C156.908 124.528 156.276 124.697 155.586 124.697C154.801 124.697 154.115 124.529 153.526 124.194C152.938 123.857 152.483 123.386 152.162 122.78C151.84 122.175 151.68 121.482 151.68 120.702C151.68 119.956 151.852 119.289 152.197 118.702C152.542 118.114 153.008 117.654 153.595 117.321C154.182 116.989 154.816 116.823 155.5 116.823C156.277 116.823 156.957 116.996 157.539 117.342C158.12 117.688 158.569 118.166 158.883 118.777C159.198 119.389 159.355 120.075 159.355 120.839V120.839ZM155.575 124.145C156.191 124.145 156.738 123.988 157.216 123.675C157.695 123.36 158.067 122.943 158.333 122.423C158.598 121.904 158.731 121.347 158.731 120.753C158.731 120.091 158.591 119.502 158.31 118.987C158.029 118.473 157.639 118.075 157.141 117.795C156.642 117.515 156.081 117.375 155.459 117.375C154.877 117.375 154.347 117.52 153.869 117.81C153.39 118.101 153.011 118.503 152.733 119.018C152.453 119.533 152.314 120.111 152.314 120.753C152.314 121.431 152.456 122.028 152.74 122.543C153.024 123.057 153.411 123.453 153.901 123.73C154.392 124.007 154.95 124.145 155.575 124.145V124.145Z" fill="#4B3F18"/>
<path id="Vector_23" d="M165.193 118.813V117.456H161.505V120.393H164.321V120.899H161.505V124.074H162.525V124.581H159.887V124.074H160.881V117.456H159.887V116.949H165.705V118.813H165.193V118.813Z" fill="#4B3F18"/>
</g>
</g>
</g>
<g id="Group_5">
<path id="Vector_24" d="M204.628 84.3729L190.181 54.2463V84.3729H174.771V20.2736H189.699L203.504 50.9609V20.2736H218.834V84.3729H204.628V84.3729Z" fill="#4B3F18"/>
<path id="Vector_25" d="M224.614 84.3729V20.2736H258.564V32.8529H241.87V45.4323H252.865V57.6116H241.87V70.9119H258.564V84.3729H224.614Z" fill="#4B3F18"/>
</g>
<g id="Group_6">
<path id="Vector_26" d="M139.091 84.2484L138.612 72.6791H134.216L133.497 84.2484H126.863L132.058 20.4175H141.489L146.765 84.2484H139.091ZM136.774 39.0881L134.856 64.5404H138.132L136.774 39.0881V39.0881Z" fill="#4B3F18"/>
<path id="Vector_27" d="M162.99 84.2484L162.351 82.7325C161.311 84.2484 159.234 85.0463 157.236 85.0463C152.2 85.0463 148.923 81.2962 148.923 74.1154V30.5504C148.923 24.0876 152.92 19.6196 158.115 19.6196C163.309 19.6196 167.306 24.0876 167.306 30.5504V43.6361H160.033V29.992C160.033 28.5562 159.393 27.6782 158.115 27.6782C156.916 27.6782 156.196 28.5562 156.196 29.992V75.4718C156.196 76.9076 156.995 77.7856 158.194 77.7856C159.473 77.7856 160.272 76.9076 160.272 75.4718V59.9129H158.515V53.0511H167.625V84.2484H162.99V84.2484Z" fill="#4B3F18"/>
</g>
</g>
<path id="big w" d="M60.6337 26.7941L57.6092 17.3891C57.2073 16.1393 56.167 15.1992 54.8813 14.9241L53.3976 14.6065C51.7038 14.244 50.4939 12.7497 50.4939 11.0204V3.66763C50.4939 1.64205 52.1387 0 54.1677 0H90.3861C92.4151 0 94.0599 1.64205 94.0599 3.66763V10.9786C94.0599 12.7267 92.824 14.2319 91.1069 14.5749L91.031 14.5901C88.9294 15.0099 87.6324 17.1291 88.2174 19.1874L102.681 70.0793H103.297L114.062 19.0649C114.489 17.0415 113.157 15.0659 111.118 14.6993L110.168 14.5285C108.419 14.2139 107.146 12.6938 107.146 10.9189V3.66763C107.146 1.64205 108.791 0 110.82 0H131.182C133.211 0 134.856 1.64205 134.856 3.66763V10.9657C134.856 12.7196 133.612 14.2281 131.888 14.565L130.138 14.9068C128.702 15.1873 127.57 16.2916 127.256 17.7181L108.088 104.698C107.717 106.38 106.225 107.578 104.5 107.578H87.8664C86.2434 107.578 84.8127 106.515 84.347 104.962L67.9088 50.1686C67.7734 49.7175 67.1291 49.7307 67.0125 50.187L53.0468 104.817C52.6316 106.441 51.1661 107.578 49.487 107.578H32.557C30.8819 107.578 29.4189 106.447 28.9999 104.828L6.40448 17.5104C6.06362 16.1932 5.02044 15.1725 3.6944 14.8589L2.82685 14.6537C1.16999 14.2618 0 12.7847 0 11.0849V3.66763C0 1.64205 1.64485 0 3.67387 0H38.8148C40.8438 0 42.4886 1.64205 42.4886 3.66763V11.0059C42.4886 12.7418 41.2697 14.2399 39.5678 14.5957L39.5678 14.5957C37.5423 15.0191 36.2667 17.0283 36.7475 19.0376L49.1087 70.6936H49.5708L60.6868 28.8554C60.8669 28.1774 60.8485 27.462 60.6337 26.7941V26.7941Z" fill="#4B3F18"/>
</g>
<defs>
<clipPath id="clip0_1_2">
<rect width="298" height="133" fill="white"/>
</clipPath>
</defs>
</svg>
