<svg width="28" height="29" viewBox="0 0 28 29" fill="none" xmlns="http://www.w3.org/2000/svg">
<path d="M3.5 7.50001L7 2.83334H21L24.5 7.50001V23.8333C24.5 24.4522 24.2542 25.0457 23.8166 25.4833C23.379 25.9208 22.7855 26.1667 22.1667 26.1667H5.83333C5.21449 26.1667 4.621 25.9208 4.18342 25.4833C3.74583 25.0457 3.5 24.4522 3.5 23.8333V7.50001Z" stroke="#421908" stroke-width="2" stroke-linecap="round" stroke-linejoin="round"/>
<path d="M3.5 7.5H24.5" stroke="#421908" stroke-width="2" stroke-linecap="round" stroke-linejoin="round"/>
<path d="M18.6667 12.1667C18.6667 13.4043 18.175 14.5913 17.2998 15.4665C16.4247 16.3417 15.2377 16.8333 14 16.8333C12.7623 16.8333 11.5753 16.3417 10.7002 15.4665C9.825 14.5913 9.33334 13.4043 9.33334 12.1667" stroke="#421908" stroke-width="2" stroke-linecap="round" stroke-linejoin="round"/>
</svg>
