<svg width="63" height="41" viewBox="0 0 63 41" fill="none" xmlns="http://www.w3.org/2000/svg">
<path d="M6.06517 39.0175C5.3965 39.5275 0.88294 41 0.88294 41C0.140124 40.7229 -0.312288 40.2631 0.256081 38.0051L4.60247 31.9311C6.19223 30.5151 7.18289 30.0311 9.19962 29.9486L15.2177 27.6708C12.1669 25.857 12.1039 24.26 14.6326 20.4156C14.7436 16.7494 15.1989 15.1882 17.2237 13.5401C18.3825 15.7544 18.8452 16.8646 19.5641 18.7706H33.9824C38.5892 18.0145 41.0477 17.4827 44.514 15.7335V12.6543C42.8024 11.1471 42.0339 10.057 41.0035 7.67695V0C45.3284 1.29927 46.6867 3.06431 46.7708 8.4784C46.7708 9.49074 47.6206 9.49074 47.7738 9.02675C47.9271 8.56276 51.2844 0 51.2844 0C52.2491 0.386908 52.6562 0.800475 53.0814 1.72942C53.536 3.72751 53.5766 4.76946 53.0814 6.41152C52.7089 8.00058 52.221 8.56378 51.2844 9.49074C51.0436 10.5667 51.049 11.2647 51.2844 12.6543L55.2128 17.1255L56.712 19.0658C57.0464 20.9218 55.2128 22.6512 55.2128 22.6512C55.2128 22.6512 53.4046 22.5788 52.0313 23.0309C51.1339 23.3263 50.6377 24.0836 50.2066 24.4074C50.2066 24.4074 49.0058 27.8865 50.2066 30.7346L55.2128 30.961L59.2667 34.5463H61.7324C63.2377 35.4141 63.3251 36.0128 62.4011 37.2459C60.7701 37.7014 57.0534 37.1638 54.0009 36.7819L47.7738 36.0226L45.517 33.1964L41.8811 30.961C38.1415 30.9416 36.3007 31.6875 31.9292 30.4547C30.0846 30.1289 29.0038 29.5689 26.9613 29.9486C25.6981 31.4592 24.9069 32.3153 23.1582 33.8715H10.4952C8.40554 36.7819 6.73385 38.5075 6.06517 39.0175Z" fill="#A8BD9E"/>
</svg>
